<?xml version="1.0" encoding="UTF-8" standalone="no"?>
<svg
   width="16"
   height="16"
   enable-background="new"
   version="1.1"
   id="svg6"
   sodipodi:docname="trimmer-working.svg"
   inkscape:version="1.1.1 (1:1.1+202109281949+c3084ef5ed)"
   xmlns:inkscape="http://www.inkscape.org/namespaces/inkscape"
   xmlns:sodipodi="http://sodipodi.sourceforge.net/DTD/sodipodi-0.dtd"
   xmlns="http://www.w3.org/2000/svg"
   xmlns:svg="http://www.w3.org/2000/svg">
  <sodipodi:namedview
     id="namedview6"
     pagecolor="#505050"
     bordercolor="#ffffff"
     borderopacity="1"
     inkscape:pageshadow="0"
     inkscape:pageopacity="0"
     inkscape:pagecheckerboard="1"
     showgrid="false"
     inkscape:zoom="64"
     inkscape:cx="6.8671875"
     inkscape:cy="7.7421875"
     inkscape:window-width="1920"
     inkscape:window-height="1011"
     inkscape:window-x="0"
     inkscape:window-y="0"
     inkscape:window-maximized="1"
     inkscape:current-layer="svg6"
     inkscape:object-paths="true"
     inkscape:snap-object-midpoints="false" />
  <defs
     id="defs10" />
  <path
     d="M 10.676755,6.9308375 C 8.8042237,5.9258112 5.7373606,4.2872814 5.4363346,4.1826471 4.9891913,4.027084 4.5244452,4.3136692 4.5043845,4.3249638 L 4.2899055,4.45878 4.4937533,4.6071109 8.9347468,7.8645646 10.488325,9.0846105 c 0.321214,0.3443058 0.602643,0.7303028 0.60537,0.7335528 0.0054,0.0075 0.517705,0.7258837 0.988269,1.8070097 0.08942,0.205576 0.166954,0.374978 0.232891,0.516262 0.07143,0.15883 0.129795,0.283391 0.171711,0.389448 0.08163,0.202886 0.262615,0.497782 0.490086,0.697367 0.674806,0.589787 1.699504,0.522795 2.291779,-0.149828 0.227627,-0.261155 0.363978,-0.580486 0.394133,-0.92517 0.04462,-0.510051 -0.156737,-1.01954 -0.540325,-1.362276 -0.158205,-0.141294 -0.343433,-0.24902 -0.544474,-0.316659 -0.148533,-0.06921 -0.262523,-0.09725 -0.384221,-0.128978 -0.18051,-0.04791 -0.384668,-0.10091 -0.786523,-0.303706 C 12.625528,9.6460163 12.000757,8.9850488 11.990932,8.9711395 11.807979,8.7905068 11.640989,8.4847893 11.504929,8.0894264 m 3.003824,3.3917066 c 0.468294,0.411432 0.205732,1.183662 -0.416296,1.224377 -0.185876,0.01343 -0.369326,-0.04857 -0.508945,-0.172012 -0.28877,-0.256555 -0.317316,-0.697714 -0.06402,-0.989344 0.255248,-0.291434 0.698666,-0.320127 0.989344,-0.06402"
     fill="#dedede"
     id="path2"
     style="fill:#999999;fill-opacity:1"
     sodipodi:nodetypes="cccccccccccccsccccccccccc" />
  <path
     d="m 12.96709,2.7731672 c -0.21201,0.1936629 -0.379598,0.4309137 -0.491256,0.6954622 -0.05366,0.1321733 -0.111193,0.2627391 -0.172533,0.3915272 -0.06386,0.1421064 -0.141562,0.3095158 -0.230898,0.5160881 -0.271477,0.6312245 -0.60175,1.2355025 -0.986452,1.8048427 -0.0036,0.00433 -0.28697,0.391501 -0.607449,0.732731 l -1.553404,1.2220384 -4.4410804,3.2564572 -0.2038478,0.148331 0.214479,0.133816 c 0.020148,0.01229 0.4847197,0.296884 0.9329463,0.14223 C 5.7248107,11.714398 8.794488,10.073614 10.666932,9.0675915 L 11.49528,7.9109949 c 0.135973,-0.3963592 0.30305,-0.7010805 0.489378,-0.8890352 0.0066,-0.00459 0.629403,-0.6653881 1.412801,-1.0621757 0.401768,-0.2037918 0.605839,-0.2577832 0.786524,-0.3037057 0.120789,-0.030644 0.235513,-0.061761 0.368717,-0.1226024 0.201855,-0.067851 0.395803,-0.180182 0.563787,-0.3253754 0.381596,-0.3425619 0.58114,-0.8498836 0.536516,-1.3599353 C 15.624472,3.5054307 15.486265,3.1810111 15.258869,2.9229956 14.667399,2.2489473 13.641706,2.1814478 12.967003,2.772171 m 1.115718,0.5217441 c 0.344041,0.023906 0.620288,0.2931941 0.652961,0.6365129 0.01947,0.2233122 -0.06827,0.4425995 -0.236404,0.5908522 -0.139619,0.1234372 -0.323069,0.1854393 -0.508944,0.172012 C 13.804941,4.6817122 13.632048,4.595871 13.510756,4.4551841 13.102631,3.985657 13.461732,3.256568 14.082721,3.2939151"
     fill="#dedede"
     id="path2-36"
     style="fill:#999999;fill-opacity:1"
     sodipodi:nodetypes="ccccccccccccccccccccccccccc" />
  <path
     d="m 12.486566,12.530883 c 0.08163,0.202886 0.262615,0.497782 0.490086,0.697367 0.674806,0.589787 1.699504,0.522795 2.291779,-0.149828 0.227627,-0.261155 0.363978,-0.580486 0.394133,-0.92517 0.04462,-0.510051 -0.156737,-1.01954 -0.540325,-1.362276 -1.165227,-1.2181924 -3.327811,0.192258 -2.635673,1.739907 z m 2.022187,-1.04975 c 0.468294,0.411432 0.205732,1.183662 -0.416296,1.224377 -0.185876,0.01343 -0.369326,-0.04857 -0.508945,-0.172012 -0.28877,-0.256555 -0.317316,-0.697714 -0.06402,-0.989344 0.255248,-0.291434 0.698666,-0.320127 0.989344,-0.06402"
     fill="#dedede"
     id="path2-3"
     style="fill:#ffa646;fill-opacity:1"
     sodipodi:nodetypes="cccsccccccc" />
  <path
     d="m3 1c-1.108 0-2 0.892-2 2v10c0 1.108 0.892 2 2 2h7c1.108 0 2-0.892 2-2v-1h-1v1c0 0.554-0.446 1-1 1h-7c-0.554 0-1-0.446-1-1v-10c0-0.554 0.446-1 1-1h7c0.554 0 1 0.446 1 1v1h1v-1c0-1.108-0.892-2-2-2h-7z"
     fill="#dedede"
     id="path4"
     style="fill:#999999;fill-opacity:1" />
  <circle
     style="fill:#999999;stroke:none;stroke-width:2;stroke-linecap:round"
     id="path2078"
     cx="7.243835"
     cy="8"
     r="0.58546042" />
  <circle
     style="fill:#999999;stroke:none;stroke-width:2;stroke-linecap:round"
     id="path2078-5"
     cx="5.154655"
     cy="8"
     r="0.58546042" />
  <circle
     style="fill:#999999;stroke:none;stroke-width:2;stroke-linecap:round"
     id="path2078-5-5"
     cx="3.0654755"
     cy="8"
     r="0.58546042" />
</svg>
