<?xml version="1.0" encoding="UTF-8" standalone="no"?>
<svg
   width="16"
   height="16"
   enable-background="new"
   version="1.1"
   id="svg6"
   sodipodi:docname="trimmer-nochange.svg"
   inkscape:version="1.1.1 (1:1.1+202109281949+c3084ef5ed)"
   xmlns:inkscape="http://www.inkscape.org/namespaces/inkscape"
   xmlns:sodipodi="http://sodipodi.sourceforge.net/DTD/sodipodi-0.dtd"
   xmlns="http://www.w3.org/2000/svg"
   xmlns:svg="http://www.w3.org/2000/svg">
  <defs
     id="defs10" />
  <sodipodi:namedview
     id="namedview8"
     pagecolor="#505050"
     bordercolor="#ffffff"
     borderopacity="1"
     inkscape:pageshadow="0"
     inkscape:pageopacity="0"
     inkscape:pagecheckerboard="1"
     showgrid="false"
     inkscape:zoom="205"
     inkscape:cx="12.826829"
     inkscape:cy="10.7"
     inkscape:window-width="1920"
     inkscape:window-height="1011"
     inkscape:window-x="0"
     inkscape:window-y="0"
     inkscape:window-maximized="1"
     inkscape:current-layer="svg6" />
  <path
     d="m 13.418,3.01 c -0.228082,0.174448 -0.41571,0.3961898 -0.55,0.65 -0.06497,0.126994 -0.133669,0.2520481 -0.206,0.375 -0.076,0.136 -0.168,0.296 -0.275,0.494 -0.325458,0.6051618 -0.707141,1.1783551 -1.14,1.712 -0.004,0.004 -0.32,0.365 -0.669,0.677 L 8.924,8 4.216,10.857 4,10.987 4.202,11.139 c 0.019,0.014 0.457,0.338 0.917,0.223 0.305,-0.076 3.506,-1.443 5.459,-2.282 0.35,0.315 0.664,0.675 0.667,0.678 0.006,0.007 0.579,0.678 1.142,1.714 0.107,0.197 0.199,0.359 0.277,0.494 0.085,0.152 0.154,0.271 0.205,0.373 0.099,0.195 0.305,0.473 0.549,0.652 0.723642,0.528729 1.738602,0.372684 2.27,-0.349 0.204,-0.28 0.312,-0.61 0.312,-0.956 0,-0.512 -0.245,-1.002 -0.657,-1.31 -0.169917,-0.126968 -0.363829,-0.21814 -0.57,-0.268 -0.154,-0.056 -0.27,-0.074 -0.394,-0.095 C 14.195,9.981 13.987,9.946 13.569,9.779 12.756,9.453 12.076,8.849 12.065,8.836 11.867,8.672 11.674,8.382 11.504,8 c 0.17,-0.383 0.363,-0.672 0.565,-0.843 0.007,-0.004 0.685,-0.608 1.5,-0.935 0.418,-0.168 0.626,-0.204 0.81,-0.234 0.123,-0.02 0.24,-0.041 0.378,-0.09 0.207,-0.05 0.41,-0.145 0.59,-0.275 C 15.757,5.315 16,4.827 16,4.315 16.001449,3.9710831 15.892043,3.6358525 15.688,3.359 15.157528,2.6359666 14.141621,2.4793289 13.418,3.009 m 1.066,0.617 c 0.340648,0.0538 0.592374,0.34614 0.595,0.691 -7e-5,0.2241592 -0.106586,0.434965 -0.287,0.568 C 14.642154,4.9957989 14.453998,5.0415763 14.27,5.012 14.086322,4.9843055 13.921569,4.8837229 13.813,4.733 13.44735,4.2296891 13.868629,3.5346721 14.484,3.626 m 0.308,7.491 c 0.502371,0.369051 0.308112,1.161227 -0.308,1.256 -0.183998,0.02958 -0.372154,-0.0162 -0.522,-0.127 -0.310032,-0.230411 -0.376919,-0.667403 -0.15,-0.98 0.228877,-0.312571 0.668107,-0.379801 0.98,-0.15"
     fill="#dedede"
     id="path2"
     style="fill:#ffff00"
     sodipodi:nodetypes="ccccccccccccccccccsccccccccccccccccccccccccc" />
  <path
     d="M 10.208081,6.3996012 C 8.1757502,5.7782459 4.8486281,4.7679551 4.5329937,4.7239105 4.0641239,4.65835 3.6640436,5.0299085 3.6465648,5.0448915 L 3.462232,5.2178928 3.6910513,5.3237122 8.6811177,7.65452"
     fill="#dedede"
     id="path2-3"
     style="fill:#ffff00"
     sodipodi:nodetypes="cccccc" />
  <path
     d="m3 1c-1.108 0-2 0.892-2 2v10c0 1.108 0.892 2 2 2h7c1.108 0 2-0.892 2-2v-1h-1v1c0 0.554-0.446 1-1 1h-7c-0.554 0-1-0.446-1-1v-10c0-0.554 0.446-1 1-1h7c0.554 0 1 0.446 1 1v1h1v-1c0-1.108-0.892-2-2-2h-7z"
     fill="#dedede"
     id="path4"
     style="fill:#ffff00" />
  <path
     d="m 12.869,12.339 c 0.099,0.195 0.305,0.473 0.549,0.652 0.723642,0.528729 1.738602,0.372684 2.27,-0.349 0.204,-0.28 0.312,-0.61 0.312,-0.956 0,-0.512 -0.245,-1.002 -0.657,-1.31 -1.266965,-1.1120005 -3.298391,0.481564 -2.474,1.963 z m 1.923,-1.222 c 0.502371,0.369051 0.308112,1.161227 -0.308,1.256 -0.183998,0.02958 -0.372154,-0.0162 -0.522,-0.127 -0.310032,-0.230411 -0.376919,-0.667403 -0.15,-0.98 0.228877,-0.312571 0.668107,-0.379801 0.98,-0.15"
     fill="#dedede"
     id="path2-3-3"
     style="fill:#ffa646;fill-opacity:1"
     sodipodi:nodetypes="cccsccccccc" />
</svg>
