<?xml version="1.0" encoding="UTF-8" standalone="no"?>
<svg
   width="16"
   height="16"
   enable-background="new"
   version="1.1"
   id="svg6"
   sodipodi:docname="trimmer.svg"
   inkscape:version="1.1.1 (1:1.1+202109281949+c3084ef5ed)"
   xmlns:inkscape="http://www.inkscape.org/namespaces/inkscape"
   xmlns:sodipodi="http://sodipodi.sourceforge.net/DTD/sodipodi-0.dtd"
   xmlns="http://www.w3.org/2000/svg"
   xmlns:svg="http://www.w3.org/2000/svg">
  <sodipodi:namedview
     id="namedview6"
     pagecolor="#505050"
     bordercolor="#ffffff"
     borderopacity="1"
     inkscape:pageshadow="0"
     inkscape:pageopacity="0"
     inkscape:pagecheckerboard="1"
     showgrid="false"
     inkscape:zoom="128"
     inkscape:cx="12.542969"
     inkscape:cy="10.746094"
     inkscape:window-width="1920"
     inkscape:window-height="1011"
     inkscape:window-x="0"
     inkscape:window-y="0"
     inkscape:window-maximized="1"
     inkscape:current-layer="svg6" />
  <defs
     id="defs10" />
  <path
     d="m13.418 3.01a1.99 1.99 0 0 0-0.55 0.65 7.27 7.27 0 0 1-0.206 0.375c-0.076 0.136-0.168 0.296-0.275 0.494a10.953 10.953 0 0 1-1.14 1.712c-4e-3 4e-3 -0.32 0.365-0.669 0.677-1.953-0.838-5.151-2.203-5.46-2.281-0.459-0.116-0.897 0.21-0.916 0.223l-0.202 0.152 0.216 0.13 4.708 2.858-4.708 2.857-0.216 0.13 0.202 0.152c0.019 0.014 0.457 0.338 0.917 0.223 0.305-0.076 3.506-1.443 5.459-2.282 0.35 0.315 0.664 0.675 0.667 0.678 6e-3 7e-3 0.579 0.678 1.142 1.714 0.107 0.197 0.199 0.359 0.277 0.494 0.085 0.152 0.154 0.271 0.205 0.373 0.099 0.195 0.305 0.473 0.549 0.652a1.627 1.627 0 0 0 2.27-0.349c0.204-0.28 0.312-0.61 0.312-0.956 0-0.512-0.245-1.002-0.657-1.31a1.568 1.568 0 0 0-0.57-0.268c-0.154-0.056-0.27-0.074-0.394-0.095-0.184-0.032-0.392-0.067-0.81-0.234-0.813-0.326-1.493-0.93-1.504-0.943-0.198-0.164-0.391-0.454-0.561-0.836 0.17-0.383 0.363-0.672 0.565-0.843 7e-3 -4e-3 0.685-0.608 1.5-0.935 0.418-0.168 0.626-0.204 0.81-0.234 0.123-0.02 0.24-0.041 0.378-0.09 0.207-0.05 0.41-0.145 0.59-0.275 0.41-0.308 0.653-0.796 0.653-1.308a1.6 1.6 0 0 0-0.312-0.956 1.625 1.625 0 0 0-2.27-0.35m1.066 0.617a0.705 0.705 0 0 1 0.595 0.691 0.706 0.706 0 0 1-0.287 0.568 0.693 0.693 0 0 1-0.522 0.127 0.69 0.69 0 0 1-0.457-0.279 0.702 0.702 0 0 1 0.671-1.107m-4.69 4.374m4.998 3.117a0.7 0.7 0 0 1-0.308 1.256 0.693 0.693 0 0 1-0.522-0.127 0.705 0.705 0 0 1-0.15-0.98 0.7 0.7 0 0 1 0.98-0.15"
     fill="#dedede"
     id="path2"
     style="fill:#96a3ff;fill-opacity:1" />
  <path
     d="m 12.869,12.339 c 0.099,0.195 0.305,0.473 0.549,0.652 0.723642,0.528729 1.738602,0.372684 2.27,-0.349 0.204,-0.28 0.312,-0.61 0.312,-0.956 0,-0.512 -0.245,-1.002 -0.657,-1.31 -1.266965,-1.1120005 -3.298391,0.481564 -2.474,1.963 z m 1.923,-1.222 c 0.502371,0.369051 0.308112,1.161227 -0.308,1.256 -0.183998,0.02958 -0.372154,-0.0162 -0.522,-0.127 -0.310032,-0.230411 -0.376919,-0.667403 -0.15,-0.98 0.228877,-0.312571 0.668107,-0.379801 0.98,-0.15"
     fill="#dedede"
     id="path2-3"
     style="fill:#ffa646;fill-opacity:1"
     sodipodi:nodetypes="cccsccccccc" />
  <path
     d="m3 1c-1.108 0-2 0.892-2 2v10c0 1.108 0.892 2 2 2h7c1.108 0 2-0.892 2-2v-1h-1v1c0 0.554-0.446 1-1 1h-7c-0.554 0-1-0.446-1-1v-10c0-0.554 0.446-1 1-1h7c0.554 0 1 0.446 1 1v1h1v-1c0-1.108-0.892-2-2-2h-7z"
     fill="#dedede"
     id="path4"
     style="fill:#96a3ff;fill-opacity:1" />
</svg>
