<?xml version="1.0" encoding="UTF-8" standalone="no"?>
<svg
   width="16"
   height="16"
   enable-background="new"
   version="1.1"
   id="svg6"
   sodipodi:docname="trimmer-success.svg"
   inkscape:version="1.1.1 (1:1.1+202109281949+c3084ef5ed)"
   xmlns:inkscape="http://www.inkscape.org/namespaces/inkscape"
   xmlns:sodipodi="http://sodipodi.sourceforge.net/DTD/sodipodi-0.dtd"
   xmlns="http://www.w3.org/2000/svg"
   xmlns:svg="http://www.w3.org/2000/svg">
  <defs
     id="defs10" />
  <sodipodi:namedview
     id="namedview8"
     pagecolor="#505050"
     bordercolor="#ffffff"
     borderopacity="1"
     inkscape:pageshadow="0"
     inkscape:pageopacity="0"
     inkscape:pagecheckerboard="1"
     showgrid="false"
     inkscape:zoom="181.01934"
     inkscape:cx="13.365975"
     inkscape:cy="10.570694"
     inkscape:window-width="1920"
     inkscape:window-height="1011"
     inkscape:window-x="0"
     inkscape:window-y="0"
     inkscape:window-maximized="1"
     inkscape:current-layer="svg6"
     inkscape:object-paths="true"
     inkscape:snap-nodes="true"
     inkscape:object-nodes="true" />
  <path
     d="m 13.418,4.2428359 a 1.99,1.4983262 0 0 0 -0.55,0.489403 7.27,5.4737848 0 0 1 -0.206,0.2823479 C 12.586,5.116985 12.494,5.2374534 12.387,5.3865331 a 10.953,8.2468178 0 0 1 -1.14,1.2890124 c -0.004,0.00301 -0.32,0.2748186 -0.669,0.509732 C 8.625,6.5543241 5.427,5.5265777 5.118,5.4678493 4.659,5.3805097 4.221,5.6259642 4.202,5.6357522 L 4,5.7501972 4.216,5.8480778 8.924,7.9999454 4.216,10.15106 4,10.248941 4.202,10.363386 c 0.019,0.01054 0.457,0.254489 0.917,0.167903 0.305,-0.05722 3.506,-1.0864752 5.459,-1.7181816 0.35,0.2371722 0.664,0.5082262 0.667,0.510485 0.006,0.00527 0.579,0.510485 1.142,1.2905186 0.107,0.148326 0.199,0.270301 0.277,0.371946 0.085,0.114445 0.154,0.204043 0.205,0.280842 0.099,0.146821 0.305,0.356135 0.549,0.490909 a 1.627,1.2250135 0 0 0 2.27,-0.262772 C 15.892,11.284216 16,11.03575 16,10.775237 16,10.389738 15.755,10.020803 15.343,9.7889017 A 1.568,1.1805907 0 0 0 14.773,9.5871171 C 14.619,9.5449531 14.503,9.5314004 14.379,9.515589 14.195,9.4914953 13.987,9.4651428 13.569,9.3394039 12.756,9.0939494 12.076,8.639181 12.065,8.629393 11.867,8.5059128 11.674,8.2875638 11.504,7.9999454 c 0.17,-0.2883714 0.363,-0.5059675 0.565,-0.6347181 0.007,-0.00301 0.685,-0.4577801 1.5,-0.7039875 0.418,-0.1264918 0.626,-0.1535972 0.81,-0.1761851 0.123,-0.015059 0.24,-0.03087 0.378,-0.067763 0.207,-0.037646 0.41,-0.1091745 0.59,-0.2070551 C 15.757,5.9783343 16,5.6109056 16,5.2254066 a 1.6,1.2046844 0 0 0 -0.312,-0.719799 1.625,1.2235076 0 0 0 -2.27,-0.2635247 m 1.066,0.4645565 a 0.705,0.53081407 0 0 1 0.595,0.520273 0.706,0.531567 0 0 1 -0.287,0.427663 0.693,0.52177894 0 0 1 -0.522,0.095622 0.69,0.51952015 0 0 1 -0.457,-0.2100668 0.702,0.52855529 0 0 1 0.671,-0.833491 m -4.69,3.293306 m 4.998,2.3468754 a 0.7,0.52704943 0 0 1 -0.308,0.945677 0.693,0.52177894 0 0 1 -0.522,-0.09562 0.705,0.53081407 0 0 1 -0.15,-0.73787 0.7,0.52704943 0 0 1 0.98,-0.112939"
     fill="#dedede"
     id="path2"
     style="stroke-width:0.999997;fill:#00ff00" />
  <path
     d="m3 1c-1.108 0-2 0.892-2 2v10c0 1.108 0.892 2 2 2h7c1.108 0 2-0.892 2-2v-1h-1v1c0 0.554-0.446 1-1 1h-7c-0.554 0-1-0.446-1-1v-10c0-0.554 0.446-1 1-1h7c0.554 0 1 0.446 1 1v1h1v-1c0-1.108-0.892-2-2-2h-7z"
     fill="#dedede"
     id="path4"
     style="fill:#00ff00" />
  <path
     d="m 12.869,11.269615 c 0.099,0.147369 0.305,0.357475 0.549,0.492756 0.723642,0.399594 1.738602,0.281662 2.27,-0.26376 C 15.892,11.286997 16,11.037596 16,10.776101 16,10.389148 15.755,10.018824 15.343,9.7860486 14.076035,8.9456371 12.044609,10.149997 12.869,11.269615 Z m 1.923,-0.923546 c 0.502371,0.278917 0.308112,0.877613 -0.308,0.94924 -0.183998,0.02234 -0.372154,-0.01218 -0.522,-0.09598 -0.310032,-0.174137 -0.376919,-0.5044 -0.15,-0.740652 0.228877,-0.236228 0.668107,-0.28704 0.98,-0.113368"
     fill="#dedede"
     id="path2-3"
     style="fill:#ffa646;fill-opacity:1;stroke-width:0.999996"
     sodipodi:nodetypes="cccsccccccc" />
</svg>
