<?xml version="1.0" encoding="UTF-8" standalone="no"?>
<svg
   width="16"
   height="16"
   enable-background="new"
   version="1.1"
   id="svg6"
   sodipodi:docname="trimmer-success.svg"
   inkscape:version="1.1.1 (1:1.1+202109281949+c3084ef5ed)"
   xmlns:inkscape="http://www.inkscape.org/namespaces/inkscape"
   xmlns:sodipodi="http://sodipodi.sourceforge.net/DTD/sodipodi-0.dtd"
   xmlns="http://www.w3.org/2000/svg"
   xmlns:svg="http://www.w3.org/2000/svg">
  <sodipodi:namedview
     id="namedview6"
     pagecolor="#505050"
     bordercolor="#ffffff"
     borderopacity="1"
     inkscape:pageshadow="0"
     inkscape:pageopacity="0"
     inkscape:pagecheckerboard="1"
     showgrid="false"
     inkscape:zoom="45.254834"
     inkscape:cx="7.1042134"
     inkscape:cy="7.9218057"
     inkscape:window-width="1920"
     inkscape:window-height="1011"
     inkscape:window-x="0"
     inkscape:window-y="0"
     inkscape:window-maximized="1"
     inkscape:current-layer="svg6" />
  <defs
     id="defs10" />
  <path
     d="M 13.613102,3.9928805 C 13.347641,4.1023524 13.109015,4.2679768 12.91361,4.4783819 12.81799,4.5842332 12.719261,4.6872455 12.617572,4.7872873 12.508963,4.898983 12.378686,5.0297198 12.224086,5.1932794 11.753091,5.6935861 11.23606,6.1484615 10.679833,6.5518907 c -0.0049,0.00283 -0.403566,0.2697409 -0.821425,0.4807819 l -1.8776838,0.617045 -5.2870248,1.54113 -0.2422865,0.069666 0.1557765,0.1991022 c 0.014729,0.018441 0.3539473,0.4447632 0.8280374,0.4527385 0.3142776,0.00553 3.7600118,-0.4864114 5.8636142,-0.7913496 l 1.173972,-0.8035334 c 0.263335,-0.3259504 0.524557,-0.5551509 0.763932,-0.6680427 0.0078,-0.00205 0.819022,-0.4099919 1.690885,-0.5149121 0.447238,-0.054089 0.657469,-0.035028 0.842963,-0.016383 0.123986,0.012516 0.242434,0.022514 0.388414,0.0109 0.212888,0.00528 0.433558,-0.033943 0.641072,-0.1129263 0.475745,-0.1913894 0.836769,-0.5998682 0.969284,-1.0944222 0.09041,-0.3318232 0.0715,-0.6839474 -0.05394,-1.0041766 C 15.390164,4.081815 14.449414,3.6675785 13.613361,3.9919146 m 0.869985,0.8718774 c 0.315117,0.140133 0.482602,0.4876632 0.395882,0.821452 -0.05808,0.2165031 -0.215531,0.3925575 -0.42423,0.4743648 -0.173417,0.068241 -0.36701,0.06376 -0.537083,-0.012431 C 13.747663,6.0728877 13.614557,5.9330911 13.548697,5.7594043 13.325773,5.1786061 13.912581,4.6163062 14.483346,4.863792"
     fill="#dedede"
     id="path2"
     style="fill:#00ff00;fill-opacity:1"
     sodipodi:nodetypes="ccccccccccccccccccccccccccc" />
  <path
     d="M 13.592246,12.009865 C 13.326785,11.900393 13.08816,11.734769 12.892755,11.524364 12.79713,11.418513 12.698405,11.3155 12.596717,11.215458 12.488107,11.103763 12.357831,10.973026 12.20323,10.809466 11.732235,10.309159 11.215204,9.8542843 10.658977,9.450855 10.654078,9.4480265 10.255412,9.1811141 9.837552,8.9700731 L 7.9598684,8.3530281 2.6728436,6.8118981 2.4305572,6.7422326 2.5863337,6.5431304 c 0.014729,-0.01844 0.3539472,-0.4447632 0.8280373,-0.4527385 0.3142776,-0.00553 3.7600118,0.4864114 5.863614,0.7913496 l 1.173972,0.8035335 c 0.263335,0.3259503 0.524558,0.5551508 0.763933,0.6680427 0.0078,0.00205 0.819021,0.4099918 1.690884,0.514912 0.447239,0.054089 0.657469,0.035028 0.842964,0.016383 0.123985,-0.012516 0.242433,-0.022514 0.388413,-0.0109 0.212888,-0.00528 0.433559,0.033943 0.641072,0.1129264 0.475746,0.1913893 0.836769,0.5998681 0.969285,1.0944219 0.09036,0.331836 0.0715,0.683948 -0.05394,1.004177 -0.325262,0.835692 -1.266012,1.249929 -2.102065,0.925593 m 0.869986,-0.871877 c 0.315116,-0.140133 0.482601,-0.487663 0.395881,-0.821452 -0.05808,-0.216503 -0.215531,-0.3925578 -0.42423,-0.4743651 -0.173417,-0.068241 -0.367009,-0.063759 -0.537083,0.012431 -0.170252,0.074286 -0.303358,0.2140861 -0.369217,0.3877731 -0.222925,0.580799 0.363884,1.143098 0.934649,0.895613"
     fill="#dedede"
     id="path2-6"
     style="fill:#00ff00;fill-opacity:1"
     sodipodi:nodetypes="ccccccccccccccccccccccccccc" />
  <path
     d="m 12.893462,11.523139 c 0.146096,0.162733 0.417028,0.377943 0.699043,0.487692 0.83583,0.323421 1.775818,-0.09 2.102324,-0.924627 0.124579,-0.323259 0.143489,-0.669967 0.05394,-1.004177 C 15.616251,9.5874731 15.252778,9.1775801 14.7751,8.9867084 13.263499,8.2405131 11.713737,10.30555 12.893462,11.523139 Z M 14.43466,9.8450687 c 0.580771,0.2264523 0.598161,1.0419143 0.02757,1.2929193 -0.170073,0.07619 -0.363666,0.08067 -0.537084,0.01243 C 13.566044,11.0081 13.388334,10.60331 13.526615,10.242633 13.666794,9.8814752 14.073657,9.7028549 14.434399,9.8441018"
     fill="#dedede"
     id="path2-3"
     style="fill:#ffa646;fill-opacity:1"
     sodipodi:nodetypes="cccsccccccc" />
  <path
     d="M 3,15 C 1.892,15 1,14.108 1,13 V 3 C 1,1.892 1.892,1 3,1 h 7 c 1.108,0 2,0.892 2,2 V 4 H 11 V 3 C 11,2.446 10.554,2 10,2 H 3 C 2.446,2 2,2.446 2,3 v 10 c 0,0.554 0.446,1 1,1 h 7 c 0.554,0 1,-0.446 1,-1 v -1 h 1 v 1 c 0,1.108 -0.892,2 -2,2 z"
     fill="#dedede"
     id="path4"
     style="fill:#00ff00;fill-opacity:1" />
</svg>
